<?xml version="1.0" encoding="UTF-8" standalone="no"?>

<svg version="1.1"
   width="1706.6667"
   height="1706.6667"
   viewBox="0 0 1706.6667 1706.6667"
   xmlns="http://www.w3.org/2000/svg">
    <g
       id="g303">
      <path style="fill:#ffffff;"
         d="M 808.53335,1377.4888 C 649.60398,1363.8007 507.51221,1279.7145 418.48198,1146.6667 368.4272,1071.8642 338.92901,983.89934 332.84756,891.30113 322.09388,727.56168 388.41013,570.68746 514.16644,462.38277 c 65.68511,-56.56977 149.45854,-97.54069 234.10024,-114.491 36.34482,-7.27839 64.84041,-10.08361 103.46667,-10.18567 89.20775,-0.23571 171.65005,20.86322 251.63445,64.39916 8.7456,4.76028 17.1456,9.51404 18.6667,10.56391 1.521,1.04988 5.4055,3.39225 8.6322,5.20526 l 5.8667,3.29639 13.8666,-3.65316 c 7.6267,-2.00924 24.9067,-6.51456 38.4,-10.01183 13.4934,-3.49728 29.8134,-7.75198 36.2667,-9.4549 6.4533,-1.70292 19.4133,-5.11573 28.8,-7.58404 9.3867,-2.4683 30.621,-8.05311 47.1874,-12.41069 16.5664,-4.35757 30.3664,-7.92286 30.6667,-7.92286 1.3018,0 -0.1895,6.03622 -13.3927,54.21 -7.6661,27.97116 -14.5801,53.25667 -15.3643,56.19 -0.7844,2.93334 -5.3646,19.73334 -10.1784,37.33334 -4.8139,17.6 -9.4642,34.76534 -10.3343,38.1452 l -1.5818,6.14522 7.93,12.52145 c 37.4124,59.07453 60.6185,116.54811 73.7509,182.6548 17.4407,87.79465 11.7707,178.99635 -16.4529,264.64285 -47.9904,145.6303 -161.7055,265.4822 -305.0306,321.4918 -72.84555,28.4671 -155.91141,40.62 -232.53335,34.0208 z M 535.51228,902.40002 c 6.0937,-20.53334 11.35318,-37.33334 11.68773,-37.33334 0.33455,0 5.59403,16.8 11.68773,37.33334 l 11.07947,37.33333 h 32.79832 32.79831 l 0.6058,-2.93333 c 0.33319,-1.61334 6.3692,-40.85334 13.41335,-87.2 7.04414,-46.34667 13.00473,-85.10667 13.24575,-86.13334 0.40881,-1.74141 -1.43592,-1.86667 -27.49092,-1.86667 h -27.92915 l -6.28379,53.60001 c -3.45609,29.48 -6.59668,54.79666 -6.97909,56.25924 -0.60584,2.31714 -0.86436,1.97408 -2.00946,-2.66667 -0.72279,-2.92925 -7.12144,-28.24591 -14.21922,-56.25924 l -12.90506,-50.93334 h -17.81204 -17.81204 l -12.90506,50.93334 c -7.09778,28.01333 -13.49643,53.32999 -14.21922,56.25924 -1.1451,4.64075 -1.40362,4.98381 -2.00946,2.66667 -0.38241,-1.46258 -3.523,-26.77924 -6.97908,-56.25924 l -6.2838,-53.60001 h -27.92914 c -26.05501,0 -27.89974,0.12526 -27.49093,1.86667 0.24102,1.02667 6.20161,39.78667 13.24575,86.13334 7.04415,46.34666 13.08016,85.58666 13.41335,87.2 l 0.6058,2.93333 h 32.79831 32.79832 z m 179.05474,33.33333 c 0.57707,-2.2 2.30192,-9.04 3.83299,-15.2 1.53108,-6.16 3.25593,-13 3.833,-15.2 l 1.04923,-4 h 21.25111 21.2511 l 1.04924,4 c 0.57707,2.2 2.30192,9.04 3.83299,15.2 1.53107,6.16 3.25593,13 3.83299,15.2 l 1.04924,4 h 23.53967 c 18.3681,0 23.43774,-0.29293 23.07568,-1.33333 -0.2552,-0.73334 -10.71247,-40.81334 -23.23836,-89.06667 l -22.77435,-87.73334 h -31.6182 -31.6182 l -22.77436,87.73334 c -12.52589,48.25333 -22.98316,88.33333 -23.23836,89.06667 -0.36205,1.0404 4.70759,1.33333 23.07568,1.33333 h 23.53967 z m 16.09278,-68.26667 c -0.011,-2.98357 13.07463,-52.53333 13.87355,-52.53333 0.79892,0 13.88453,49.54976 13.87354,52.53333 -0.006,1.6817 -1.38092,1.86667 -13.87354,1.86667 -12.49262,0 -13.86735,-0.18497 -13.87355,-1.86667 z m 156.64758,30.4 c 1.54018,-49.94124 2.35957,-65.53127 3.34186,-63.58297 0.40199,0.7973 7.89036,24.84845 16.64084,53.44698 l 15.90994,51.99736 h 16.53333 16.53334 l 15.90994,-51.99736 c 8.75047,-28.59853 16.23885,-52.64968 16.64083,-53.44698 0.98229,-1.9483 1.80168,13.64173 3.34187,63.58297 l 1.29114,41.86667 h 25.02033 25.0204 l -0.6519,-10.93333 c -0.3586,-6.01334 -1.661,-45.01334 -2.8944,-86.66667 -1.2333,-41.65333 -2.4546,-76.81334 -2.714,-78.13334 l -0.4715,-2.4 h -32.8533 -32.85325 l -15.38607,42.66667 c -8.46233,23.46667 -15.63238,42.66667 -15.93343,42.66667 -0.30104,0 -7.47109,-19.2 -15.93343,-42.66667 l -15.38607,-42.66667 h -32.85326 -32.85327 l -0.47155,2.4 c -0.25936,1.32 -1.48066,36.48001 -2.714,78.13334 -1.23335,41.65333 -2.53579,80.65333 -2.89433,86.66667 l -0.65189,10.93333 h 25.02034 25.02034 z m 226.13342,0 c 1.5401,-49.94124 2.3595,-65.53127 3.3418,-63.58297 0.402,0.7973 7.8904,24.84845 16.6408,53.44698 l 15.91,51.99736 h 16.5333 16.5333 l 15.91,-51.99736 c 8.7504,-28.59853 16.2388,-52.64968 16.6407,-53.44698 0.9823,-1.9483 1.8018,13.64173 3.3419,63.58297 l 1.2912,41.86667 h 25.0204 25.0203 l -0.6519,-10.93333 c -0.3585,-6.01334 -1.661,-45.01334 -2.8943,-86.66667 -1.2334,-41.65333 -2.4547,-76.81334 -2.714,-78.13334 l -0.4716,-2.4 h -32.8532 -32.8533 l -15.3861,42.66667 c -8.4624,23.46667 -15.6324,42.66667 -15.9334,42.66667 -0.301,0 -7.4711,-19.2 -15.9335,-42.66667 l -15.386,-42.66667 h -32.8533 -32.8532 l -0.4716,2.4 c -0.2593,1.32 -1.4807,36.48001 -2.714,78.13334 -1.2333,41.65333 -2.5358,80.65333 -2.8943,86.66667 l -0.6519,10.93333 h 25.0203 25.0204 z"
      />
      <path style="fill:#fadea0;"
         d="M 808.00002,1655.3434 C 547.0842,1639.9868 312.21598,1501.2527 172.91284,1280.2043 c -9.4603,-15.0117 -22.11812,-37.0466 -31.53688,-54.8998 l -7.19015,-13.629 3.04043,-2.3543 c 22.84252,-17.6877 34.75504,-41.3566 34.75504,-69.0545 0,-20.357 -6.39141,-38.5166 -18.86049,-53.5871 -17.11192,-20.6821 -39.84097,-31.7511 -65.951234,-32.118 L 75.672443,1054.4 74.671939,1050.6667 C 66.381439,1019.7311 57.653244,969.44761 53.934937,931.20002 34.470533,730.98345 90.860652,530.49681 211.74404,370.13334 363.65608,168.60736 601.19256,50.133334 853.33335,50.133334 c 175.23935,0 345.40705,57.244726 485.33335,163.267056 20.0351,15.18065 43.2645,34.41819 41.9927,34.77645 -0.5093,0.14347 -9.566,2.50744 -20.126,5.25328 -10.56,2.74582 -25.2,6.56807 -32.5334,8.49387 -7.3333,1.92581 -18.8533,4.94471 -25.6,6.70868 -6.7466,1.76396 -20.9066,5.47074 -31.4666,8.23728 -10.56,2.76654 -25.2,6.59435 -32.5334,8.50625 -7.3333,1.91189 -19.0933,5.01295 -26.1333,6.89124 -7.04,1.87829 -23.5803,6.22371 -36.7562,9.65649 l -23.9561,6.24141 -10.1772,-5.34683 c -55.786,-29.30852 -122.1712,-51.6196 -184.04385,-61.85443 -31.07576,-5.14048 -50.59109,-7.11195 -82.97919,-8.38271 -130.36462,-5.11488 -259.7759,31.60866 -369.16057,104.75814 -151.5297,101.33336 -251.26741,262.47362 -274.14965,442.92717 -5.35684,42.24508 -5.614,107.1131 -0.59202,149.33334 18.12907,152.41258 86.29392,286.37818 198.24608,389.61668 73.25826,67.5562 159.69446,115.8521 255.03535,142.4998 20.94723,5.8547 36.6668,9.3071 66.13333,14.5242 51.72624,9.158 123.06625,10.6204 177.6,3.6405 74.90062,-9.5867 138.93652,-29.0211 205.51892,-62.3737 118.3125,-59.265 217.2074,-158.1092 277.9169,-277.7741 33.5005,-66.0332 53.9581,-135.2208 63.3943,-214.40005 4.0343,-33.85224 3.9275,-96.69935 -0.2301,-135.46667 -1.9688,-18.35782 -7.3059,-51.11527 -10.6013,-65.06667 -0.5543,-2.34666 -2.2584,-9.54666 -3.787,-16 -11.6278,-49.09239 -34.3221,-107.43315 -59.3605,-152.59979 l -5.95,-10.73313 6.6667,-24.46687 c 3.6665,-13.45679 10.3877,-38.14688 14.9358,-54.86688 4.548,-16.72 10.3955,-38.08 12.9942,-47.46667 2.5988,-9.38666 5.9589,-21.62666 7.467,-27.2 1.5081,-5.57333 4.0721,-14.93333 5.698,-20.8 1.6258,-5.86666 4.9697,-18.10666 7.4307,-27.2 2.4611,-9.09333 4.8228,-17.69136 5.2484,-19.10673 0.7201,-2.39528 1.4014,-1.84158 9.844,8 105.6608,123.16896 172.2205,279.98104 188.0791,443.10674 19.4644,200.21657 -36.9258,400.70322 -157.8091,561.06672 -152.7774,202.6739 -392.0893,321.3125 -645.17434,319.8444 -14.74826,-0.085 -33.53501,-0.551 -41.74834,-1.0344 z M 228.16526,1252.2958 c 11.70612,-3.3573 19.31396,-16.0872 16.24876,-27.1885 -5.24115,-18.9818 -29.59777,-23.4631 -40.56142,-7.4627 -11.75585,17.1565 4.50496,40.332 24.31266,34.6512 z M 183.78327,990.41166 c 20.01412,-5.21302 36.57694,-21.79118 41.72693,-41.7656 3.51088,-13.61709 1.58723,-29.84907 -5.03819,-42.51271 -4.49524,-8.59208 -15.5887,-19.65034 -23.94413,-23.86815 -23.27348,-11.7484 -49.58694,-7.68825 -67.47686,10.41164 C 117.55712,904.30564 112,917.72988 112,933.86668 c 0,26.41774 17.69534,49.68711 42.95948,56.4917 7.40804,1.99526 21.26963,2.02088 28.82379,0.0532 z M 1516.8,532.18037 c 10.1276,-4.58438 15.989,-13.75504 15.9662,-24.98036 -0.031,-15.36366 -11.6093,-27.17916 -26.6328,-27.17916 -15.0314,0 -26.6199,11.83198 -26.6199,27.17916 0,11.19805 5.478,19.95779 15.4199,24.65782 6.8032,3.21622 15.2005,3.34008 21.8666,0.32254 z m -11.7862,923.11163 c -2.3791,-2.1494 -4.8194,-4.9094 -5.4229,-6.1334 -0.6036,-1.2239 0.1611,-0.6848 1.6993,1.198 1.5381,1.8829 4.337,4.6376 6.2199,6.1216 1.8828,1.484 3.0646,2.7035 2.6264,2.71 -0.4383,0.011 -2.7435,-1.7468 -5.1227,-3.8962 z m 54.1428,1.1862 c 1.8829,-1.484 4.6818,-4.2387 6.22,-6.1216 1.5381,-1.8828 2.3028,-2.4219 1.6993,-1.198 -1.18,2.3931 -9.2299,10.0491 -10.5456,10.0296 -0.4383,-0.011 0.7435,-1.226 2.6263,-2.71 z m -60.4781,-55.1417 c -0.019,-1.3158 7.6365,-9.3657 10.0296,-10.5456 1.2239,-0.6036 0.6848,0.1611 -1.198,1.6993 -1.8829,1.5381 -4.6375,4.337 -6.1216,6.2199 -1.4839,1.8828 -2.7035,3.0646 -2.71,2.6264 z m 63.2435,-5.7276 c -3.0496,-3.167 -4.6883,-5.2998 -3.6414,-4.7394 1.9175,1.0262 9.7194,9.2142 9.7194,10.2003 0,0.8246 -0.1886,0.6551 -6.078,-5.4609 z M 1193.6,1250.7973 c 0,-0.2215 0.84,-1.0615 1.8667,-1.8667 1.6918,-1.3267 1.7295,-1.2891 0.4028,0.4028 -1.3935,1.7767 -2.2695,2.3418 -2.2695,1.4639 z m -720.13605,-34.5306 c -1.3268,-1.6918 -1.28907,-1.7295 0.40273,-0.4028 1.7768,1.3935 2.34184,2.2695 1.46393,2.2695 -0.22149,0 -1.06149,-0.84 -1.86666,-1.8667 z m 758.00275,-2.4 c 1.0619,-1.1733 2.1707,-2.1333 2.464,-2.1333 0.2933,0 -0.3355,0.96 -1.3973,2.1333 -1.0619,1.1733 -2.1707,2.1333 -2.464,2.1333 -0.2934,0 0.3354,-0.96 1.3973,-2.1333 z M 30.739798,1206.0053 c -5.348954,-4.3573 -12.220424,-11.9496 -14.123596,-15.6053 -0.458136,-0.88 0.512428,0.08 2.156806,2.1334 3.994731,4.9882 10.776148,11.7165 15.360326,15.2401 2.053333,1.5782 3.417334,2.8748 3.031113,2.8814 -0.386221,0.011 -3.277314,-2.0859 -6.424649,-4.6496 z M 17.103211,1089.1735 c 1.654428,-3.3183 14.885311,-16.5492 18.203584,-18.2036 1.571977,-0.7837 1.119119,-0.1309 -1.173461,1.6917 -4.775602,3.7964 -11.54196,10.5628 -15.338487,15.3384 -1.822564,2.2926 -2.475394,2.7454 -1.691636,1.1735 z M 331.81755,882.5778 c 0.0512,-1.24261 0.30394,-1.49536 0.64444,-0.64445 0.30813,0.77 0.27024,1.69001 -0.0842,2.04445 -0.35444,0.35444 -0.60655,-0.27556 -0.56023,-1.4 z m 1039.99995,-5.33333 c 0.051,-1.24262 0.304,-1.49536 0.6445,-0.64445 0.3082,0.76999 0.2703,1.69 -0.084,2.04445 -0.3544,0.35444 -0.6066,-0.27557 -0.5603,-1.4 z m 0.084,-35.64445 c 0,-1.46667 0.2421,-2.06667 0.538,-1.33334 0.2959,0.73334 0.2959,1.93334 0,2.66667 -0.2959,0.73333 -0.538,0.13333 -0.538,-1.33333 z m -470.76845,-502.062 c 0.77,-0.30813 1.69001,-0.27024 2.04445,0.0842 0.35444,0.35445 -0.27556,0.60655 -1.4,0.56024 -1.24261,-0.0512 -1.49536,-0.30394 -0.64445,-0.64444 z m -66.13333,-2.13333 c 0.76999,-0.30813 1.69,-0.27024 2.04444,0.0842 0.35445,0.35444 -0.27556,0.60655 -1.4,0.56023 -1.24261,-0.0512 -1.49536,-0.30393 -0.64444,-0.64443 z m 862.06668,-27.40741 c 0,-0.2215 0.84,-1.0615 1.8667,-1.86667 1.6918,-1.3268 1.7295,-1.28907 0.4027,0.40273 -1.3935,1.7768 -2.2694,2.34184 -2.2694,1.46394 z m 4.3523,-5.99727 c 1.555,-3.2651 2.0477,-3.87023 2.0477,-2.51499 0,0.57232 -0.7465,1.97232 -1.6589,3.11111 -1.564,1.95233 -1.5863,1.9183 -0.3888,-0.59612 z m 2.139,-4.8 c 0.111,-2.02051 1.8889,-5.42278 1.9507,-3.73334 0.032,0.88 -0.4066,2.32 -0.9753,3.2 -0.5688,0.88 -1.0076,1.12 -0.9754,0.53334 z M 1510.2639,144.26667 c -1.3267,-1.6918 -1.289,-1.72953 0.4028,-0.40273 1.7767,1.39346 2.3419,2.2694 1.4639,2.2694 -0.2215,0 -1.0615,-0.84 -1.8667,-1.86667 z m 119.6028,1.46394 c 0,-0.2215 0.84,-1.0615 1.8667,-1.86667 1.6918,-1.3268 1.7295,-1.28907 0.4027,0.40273 -1.3935,1.7768 -2.2694,2.34184 -2.2694,1.46394 z m -202.7474,-84.663942 -2.5859,-2.933334 2.9333,2.585935 c 1.6133,1.422265 2.9333,2.742265 2.9333,2.933334 0,0.836559 -0.8638,0.155707 -3.2807,-2.585935 z M 1456,61.333335 c 1.3778,-1.466667 2.7452,-2.666667 3.0385,-2.666667 0.2934,0 -0.594,1.2 -1.9718,2.666667 -1.3778,1.466666 -2.7452,2.666666 -3.0385,2.666666 -0.2933,0 0.594,-1.2 1.9718,-2.666666 z m -28.8,-28.800001 c 1.3778,-1.466667 2.7452,-2.666667 3.0385,-2.666667 0.2934,0 -0.594,1.2 -1.9718,2.666667 -1.3778,1.466667 -2.7452,2.666667 -3.0385,2.666667 -0.2933,0 0.594,-1.2 1.9718,-2.666667 z m 28.7193,-0.266667 -2.5859,-2.933333 2.9333,2.585935 c 1.6133,1.422264 2.9333,2.742264 2.9333,2.933333 0,0.836559 -0.8638,0.155707 -3.2807,-2.585935 z M 1510.9334,25.6 c 2.8891,-2.933333 5.4931,-5.333333 5.7864,-5.333333 0.2933,0 -1.8306,2.4 -4.7198,5.333333 -2.8891,2.933334 -5.4931,5.333334 -5.7864,5.333334 -0.2934,0 1.8306,-2.4 4.7198,-5.333334 z m 119.4265,-0.266666 -5.2932,-5.6 5.6,5.293235 c 5.2036,4.918569 6.0892,5.906765 5.2932,5.906765 -0.1687,0 -2.6887,-2.52 -5.6,-5.6 z"
      />
      <path style="fill:transparent;"
         d="m 0.13838439,1424.8 c 0.0793047,-161.5311 0.52646171,-278.5242 1.04739271,-274.0377 2.0018701,17.2412 12.0594839,37.9899 24.3940859,50.3246 12.770088,12.77 32.886406,22.3129 51.486805,24.4244 17.023304,1.9326 35.631022,-1.7894 50.574512,-10.116 l 6.57451,-3.6633 7.17521,13.6007 c 114.52324,217.0796 316.66584,368.3223 555.67578,415.7553 224.36874,44.5275 457.04872,-8.657 639.46672,-146.1653 179.7572,-135.5026 294.4459,-339.9713 316.1984,-563.72268 16.158,-166.20687 -19.8287,-333.25512 -102.9898,-478.071 -22.8429,-39.77846 -52.0274,-81.57238 -80.5653,-115.37437 -6.3672,-7.54162 -12.0095,-14.31075 -12.5386,-15.04252 -0.6163,-0.8526 1.0769,-8.76204 4.7144,-22.0213 7.3692,-26.86269 7.901,-28.80979 10.4565,-38.29082 1.186,-4.4 4.1091,-15.16507 6.4958,-23.92237 2.3866,-8.7573 4.1237,-16.13806 3.86,-16.40168 -0.4543,-0.45432 -11.1486,2.19378 -46.4314,11.4973 -45.8669,12.09433 -53.6174,14.00754 -54.7555,13.51629 -0.6844,-0.29549 -6.7645,-5.1778 -13.5112,-10.84959 -32.8994,-27.65787 -74.9398,-56.92566 -113.9291,-79.31532 C 1085.0116,60.148007 887.66519,27.753138 697.06668,65.578662 502.97814,104.0968 330.87199,212.09864 211.74404,370.13334 75.300763,551.13851 21.600374,782.99567 64.65459,1005.2078 c 3.256519,16.8076 8.936233,42.3695 10.615099,47.7739 0.446323,1.4368 -0.642687,2.0281 -5.624769,3.0541 -15.64845,3.2227 -33.203679,12.5494 -44.065057,23.4107 -12.334602,12.3346 -22.3922158,33.0833 -24.3940859,50.3246 C 0.67135849,1134.2016 0.2711585,977.39256 0.2638445,768.53335 0.25673613,565.54668 0.64150479,401.79444 1.118886,404.63949 3.978392,421.68128 19.35038,436.65317 36.887895,439.4775 59.337588,443.09292 81.648279,426.59479 85.344163,403.64545 89.780379,376.09906 64.363373,350.71395 36.832535,355.19472 19.315292,358.04571 3.9746189,373.00789 1.118886,390.0272 0.64150479,392.87224 0.19446316,306.28001 0.12546011,197.6 L 0,0 784.26668,0.13838439 c 438.39042,0.0773543 780.81402,0.53927409 776.43782,1.04739271 -21.4307,2.4882931 -43.5674,15.2742979 -56.8883,32.8582559 -11.6144,15.331429 -17.0492,31.681255 -17.0492,51.289302 0,24.191265 7.9099,42.909665 25.4423,60.207555 33.128,32.68495 84.8535,32.68495 117.9815,0 17.5323,-17.29789 25.4423,-36.01629 25.4423,-60.207555 0,-19.608047 -5.4349,-35.957873 -17.0493,-51.289302 -13.3208,-17.583958 -35.4576,-30.3699628 -56.8882,-32.8582559 -5.0365,-0.5847851 15.8545,-0.95836698 58.5711,-1.04739271 L 1706.6667,0 l -0.091,140 c -0.075,115.80054 -0.3263,139.07812 -1.4532,134.66667 -2.3327,-9.13148 -3.6243,-11.27634 -11.554,-19.18625 -9.7036,-9.67936 -16.3096,-12.53013 -29.0354,-12.53013 -12.6878,0 -19.3464,2.86032 -28.9013,12.41518 -9.5871,9.58713 -12.472,16.27218 -12.472,28.9012 0,11.7777 2.8603,18.89079 11.1669,27.77051 3.7819,4.04301 8.6607,7.94005 11.9624,9.55543 15.3735,7.52153 33.447,4.81975 46.8848,-7.00873 6.2817,-5.52937 8.908,-9.2598 11.4068,-16.20292 1.9708,-5.47565 2.0094,7.75713 2.0472,701.35239 l 0.038,706.93335 -693.0667,-0.055 c -689.6362,-0.055 -693.04026,-0.066 -687.73333,-2.1476 26.54447,-10.4122 35.96071,-42.4519 19.17868,-65.2575 -13.87838,-18.8596 -40.41802,-22.782 -59.43934,-8.7846 -18.85966,13.8784 -22.78202,40.418 -8.78468,59.4393 4.47962,6.0875 11.92791,11.7586 19.17868,14.6028 l 5.33333,2.0921 -150.66667,0.055 L 0,1706.6667 Z M 1539.8041,1465.5131 c 7.8125,-1.424 17.8799,-6.3544 22.9397,-11.2342 4.878,-4.7045 10.071,-15.1688 11.5659,-23.306 2.1541,-11.7251 -3.0339,-27.9566 -11.5659,-36.185 -5.0666,-4.8866 -15.1301,-9.8107 -22.9709,-11.24 -11.6096,-2.1163 -27.0067,2.7111 -35.85,11.24 -4.878,4.7044 -10.0709,15.1687 -11.5659,23.3059 -2.1269,11.5774 2.6941,26.998 11.1973,35.8156 4.5089,4.6757 14.0181,9.6098 21.7791,11.3004 7.5968,1.655 7.1105,1.6448 14.4707,0.3033 z M 1452.2254,64.715437 c 7.6764,-4.206545 12.3077,-14.12707 10.218,-21.887661 -3.7258,-13.836753 -18.0373,-20.519698 -29.9084,-13.966237 -8.1289,4.487489 -12.8662,14.239041 -10.7225,22.071795 2.2845,8.347351 6.4405,12.819284 14.7306,15.850348 4.7929,1.752447 9.9515,1.072111 15.6823,-2.068245 z M 836.47463,929.60002 c 0.0218,-1.76 0.2608,-2.35087 0.53124,-1.31304 0.27045,1.03784 0.25266,2.47784 -0.0396,3.2 -0.29219,0.72217 -0.51346,-0.12696 -0.49172,-1.88696 z m 205.86667,0 c 0.022,-1.76 0.2608,-2.35087 0.5312,-1.31304 0.2705,1.03784 0.2527,2.47784 -0.039,3.2 -0.2922,0.72217 -0.5135,-0.12696 -0.4918,-1.88696 z m 20.2667,0 c 0.022,-1.76 0.2608,-2.35087 0.5312,-1.31304 0.2705,1.03784 0.2527,2.47784 -0.04,3.2 -0.2922,0.72217 -0.5134,-0.12696 -0.4917,-1.88696 z m 205.8666,0 c 0.021,-1.76 0.2608,-2.35087 0.5313,-1.31304 0.2704,1.03784 0.2527,2.47784 -0.04,3.2 -0.2921,0.72217 -0.5134,-0.12696 -0.4917,-1.88696 z M 886.56843,907.73335 c 0,-1.46667 0.24212,-2.06667 0.53802,-1.33333 0.2959,0.73333 0.2959,1.93333 0,2.66666 -0.2959,0.73334 -0.53802,0.13334 -0.53802,-1.33333 z m 105.60001,0 c 0,-1.46667 0.24211,-2.06667 0.53801,-1.33333 0.29591,0.73333 0.29591,1.93333 0,2.66666 -0.2959,0.73334 -0.53801,0.13334 -0.53801,-1.33333 z m 120.53336,0 c 0,-1.46667 0.2421,-2.06667 0.538,-1.33333 0.2959,0.73333 0.2959,1.93333 0,2.66666 -0.2959,0.73334 -0.538,0.13334 -0.538,-1.33333 z m 105.6,0 c 0,-1.46667 0.2421,-2.06667 0.538,-1.33333 0.2959,0.73333 0.2959,1.93333 0,2.66666 -0.2959,0.73334 -0.538,0.13334 -0.538,-1.33333 z m -484.16845,-7.1952 c 5.72,-0.1918 15.08,-0.1918 20.8,0 5.72,0.1918 1.04,0.34872 -10.4,0.34872 -11.44,0 -16.12,-0.15692 -10.4,-0.34872 z m 103.36842,-3.47147 c 0,-1.46666 0.24211,-2.06666 0.53801,-1.33333 0.29591,0.73333 0.29591,1.93333 0,2.66667 -0.2959,0.73333 -0.53801,0.13333 -0.53801,-1.33334 z m 203.73333,0 c 0,-1.46666 0.2421,-2.06666 0.538,-1.33333 0.2959,0.73333 0.2959,1.93333 0,2.66667 -0.2959,0.73333 -0.538,0.13333 -0.538,-1.33334 z m 22.4,0 c 0,-1.46666 0.2421,-2.06666 0.538,-1.33333 0.2959,0.73333 0.2959,1.93333 0,2.66667 -0.2959,0.73333 -0.538,0.13333 -0.538,-1.33334 z m 203.7334,0 c 0,-1.46666 0.2421,-2.06666 0.538,-1.33333 0.2959,0.73333 0.2959,1.93333 0,2.66667 -0.2959,0.73333 -0.538,0.13333 -0.538,-1.33334 z m -379.69387,-20.8 c 0.0218,-1.76 0.2608,-2.35087 0.53124,-1.31303 0.27045,1.03783 0.25266,2.47783 -0.0396,3.2 -0.29219,0.72216 -0.51346,-0.12697 -0.49172,-1.88697 z m 103.46667,0 c 0.0218,-1.76 0.2608,-2.35087 0.53124,-1.31303 0.27044,1.03783 0.25266,2.47783 -0.0396,3.2 -0.29219,0.72216 -0.51346,-0.12697 -0.49172,-1.88697 z m 122.6666,0 c 0.021,-1.76 0.2608,-2.35087 0.5313,-1.31303 0.2704,1.03783 0.2527,2.47783 -0.039,3.2 -0.2922,0.72216 -0.5134,-0.12697 -0.4918,-1.88697 z m 103.4667,0 c 0.021,-1.76 0.2608,-2.35087 0.5313,-1.31303 0.2704,1.03783 0.2527,2.47783 -0.04,3.2 -0.2921,0.72216 -0.5134,-0.12697 -0.4917,-1.88697 z M 838.56843,864.00002 c 0,-1.46667 0.24211,-2.06667 0.53802,-1.33334 0.2959,0.73334 0.2959,1.93334 0,2.66667 -0.29591,0.73333 -0.53802,0.13333 -0.53802,-1.33333 z m 201.59997,0 c 0,-1.46667 0.2421,-2.06667 0.5381,-1.33334 0.2959,0.73334 0.2959,1.93334 0,2.66667 -0.296,0.73333 -0.5381,0.13333 -0.5381,-1.33333 z m 24.5334,0 c 0,-1.46667 0.2421,-2.06667 0.538,-1.33334 0.2959,0.73334 0.2959,1.93334 0,2.66667 -0.2959,0.73333 -0.538,0.13333 -0.538,-1.33333 z m 201.6,0 c 0,-1.46667 0.2421,-2.06667 0.538,-1.33334 0.2959,0.73334 0.2959,1.93334 0,2.66667 -0.2959,0.73333 -0.538,0.13333 -0.538,-1.33333 z m -377.60003,-19.2 c 0,-1.46667 0.24211,-2.06667 0.53801,-1.33334 0.29591,0.73334 0.29591,1.93334 0,2.66667 -0.2959,0.73333 -0.53801,0.13333 -0.53801,-1.33333 z m 101.33333,0 c 0,-1.46667 0.24211,-2.06667 0.53802,-1.33334 0.2959,0.73334 0.2959,1.93334 0,2.66667 -0.29591,0.73333 -0.53802,0.13333 -0.53802,-1.33333 z m 124.8,0 c 0,-1.46667 0.2421,-2.06667 0.538,-1.33334 0.2959,0.73334 0.2959,1.93334 0,2.66667 -0.2959,0.73333 -0.538,0.13333 -0.538,-1.33333 z m 101.3334,0 c 0,-1.46667 0.2421,-2.06667 0.538,-1.33334 0.2959,0.73334 0.2959,1.93334 0,2.66667 -0.2959,0.73333 -0.538,0.13333 -0.538,-1.33333 z M 839.67463,831.46668 c 0.0218,-1.76 0.2608,-2.35087 0.53124,-1.31303 0.27045,1.03783 0.25266,2.47783 -0.0396,3.2 -0.29219,0.72216 -0.51346,-0.12697 -0.49172,-1.88697 z m 199.46667,0 c 0.022,-1.76 0.2608,-2.35087 0.5312,-1.31303 0.2705,1.03783 0.2527,2.47783 -0.039,3.2 -0.2922,0.72216 -0.5135,-0.12697 -0.4918,-1.88697 z m 26.6667,0 c 0.022,-1.76 0.2608,-2.35087 0.5312,-1.31303 0.2705,1.03783 0.2527,2.47783 -0.04,3.2 -0.2922,0.72216 -0.5134,-0.12697 -0.4917,-1.88697 z m 199.4666,0 c 0.021,-1.76 0.2608,-2.35087 0.5313,-1.31303 0.2704,1.03783 0.2527,2.47783 -0.04,3.2 -0.2921,0.72216 -0.5134,-0.12697 -0.4917,-1.88697 z M 840.70177,798.93335 c 0,-1.46667 0.24211,-2.06667 0.53801,-1.33333 0.29591,0.73333 0.29591,1.93333 0,2.66666 -0.2959,0.73334 -0.53801,0.13334 -0.53801,-1.33333 z m 197.33333,0 c 0,-1.46667 0.2421,-2.06667 0.538,-1.33333 0.2959,0.73333 0.2959,1.93333 0,2.66666 -0.2959,0.73334 -0.538,0.13334 -0.538,-1.33333 z m 28.8,0 c 0,-1.46667 0.2421,-2.06667 0.538,-1.33333 0.2959,0.73333 0.2959,1.93333 0,2.66666 -0.2959,0.73334 -0.538,0.13334 -0.538,-1.33333 z m 197.3334,0 c 0,-1.46667 0.2421,-2.06667 0.538,-1.33333 0.2959,0.73333 0.2959,1.93333 0,2.66666 -0.2959,0.73334 -0.538,0.13334 -0.538,-1.33333 z M 841.80796,766.40001 c 0.0218,-1.76 0.2608,-2.35086 0.53125,-1.31303 0.27044,1.03783 0.25266,2.47783 -0.0396,3.2 -0.29219,0.72217 -0.51346,-0.12696 -0.49172,-1.88697 z m 195.20004,0 c 0.022,-1.76 0.2608,-2.35086 0.5312,-1.31303 0.2705,1.03783 0.2527,2.47783 -0.04,3.2 -0.2922,0.72217 -0.5134,-0.12696 -0.4917,-1.88697 z m 30.9332,0 c 0.021,-1.76 0.2608,-2.35086 0.5314,-1.31303 0.2704,1.03783 0.2526,2.47783 -0.04,3.2 -0.2922,0.72217 -0.5134,-0.12696 -0.4917,-1.88697 z m 195.2001,0 c 0.021,-1.76 0.2608,-2.35086 0.5313,-1.31303 0.2704,1.03783 0.2527,2.47783 -0.04,3.2 -0.2922,0.72217 -0.5134,-0.12696 -0.4917,-1.88697 z"
      />
      <path style="fill:#ffffff;"
         d="M 154.95948,990.35838 C 135.275,985.0566 118.77866,968.38333 113.6898,948.64606 c -3.51088,-13.61709 -1.58723,-29.84907 5.03819,-42.51271 4.49524,-8.59208 15.58871,-19.65034 23.94414,-23.86815 23.27347,-11.7484 49.58694,-7.68825 67.47686,10.41164 11.49389,11.6288 17.05101,25.05304 17.05101,41.18984 0,26.65655 -17.83243,49.88112 -43.41673,56.54498 -7.55416,1.9676 -21.41575,1.94198 -28.82379,-0.0532 z M 1494.9334,531.85783 c -9.9419,-4.70003 -15.4199,-13.45977 -15.4199,-24.65782 0,-15.34718 11.5885,-27.17916 26.6199,-27.17916 15.0235,0 26.6016,11.8155 26.6328,27.17916 0.041,19.99239 -20.0305,33.07389 -37.8328,24.65782 z"
      />
      <path style="fill:#efba1a;"
         d="m 1526.6413,1465.4904 c -7.8835,-1.3269 -15.6497,-5.5597 -22.1775,-12.0875 -16.8263,-16.8263 -16.8263,-40.9127 0,-57.7391 16.8264,-16.8263 40.9128,-16.8263 57.7391,0 16.8264,16.8264 16.8264,40.9128 0,57.7391 -8.0247,8.0248 -14.47,11.0235 -27.2695,12.6876 -1.4667,0.1907 -5.1981,-0.079 -8.2921,-0.6001 z M 216.15836,1252.2383 c -14.69932,-4.406 -20.95011,-21.9781 -12.30576,-34.5937 10.96365,-16.0004 35.32027,-11.5191 40.56142,7.4627 4.42497,16.026 -12.16374,31.9544 -28.25566,27.131 z M 76.009614,1225.4912 c -33.65249,-3.9155 -64.044598,-30.8561 -72.9239444,-64.6422 -3.03811867,-11.5601 -3.02065532,-29.6694 0.039846,-41.3204 7.8288784,-29.8038 32.6215674,-54.5667 62.6921754,-62.617 11.566486,-3.0965 29.590978,-3.0856 41.382309,0.025 30.34296,8.0044 54.52581,32.1872 62.53021,62.5302 3.13243,11.8743 3.12243,29.7972 -0.0231,41.6 -9.3116,34.9383 -38.66783,60.4074 -74.336524,64.4937 -5.227104,0.5989 -9.983825,1.0304 -10.570492,0.9592 -0.586667,-0.072 -4.542341,-0.5341 -8.790387,-1.0284 z M 1564.8,169.98776 c -6.7414,-0.70736 -16.5124,-2.70449 -17.6,-3.59731 -0.5866,-0.48164 -1.3066,-0.88278 -1.6,-0.89142 -0.2933,-0.009 -1.9733,-0.57509 -3.7333,-1.25876 -1.76,-0.68367 -4.4,-1.70725 -5.8667,-2.27463 -6.7732,-2.62023 -18.4995,-11.18337 -25.6958,-18.76433 -21.2933,-22.43182 -28.8561,-53.321242 -20.074,-81.991166 4.2906,-14.006895 10.0981,-23.476865 21.2011,-34.570525 15.3423,-15.329622 31.1054,-23.2868335 50.4956,-25.490095 25.9671,-2.9505858 49.1402,5.6048873 69.0419,25.490095 7.8542,7.847672 11.1684,12.102742 14.5602,18.693715 14.0132,27.230452 13.6493,55.374836 -1.0549,81.570576 -7.8644,14.01041 -25.6694,30.27379 -38.6074,35.2645 -1.76,0.6789 -4.16,1.61124 -5.3333,2.07186 -1.1734,0.46062 -2.4196,0.775 -2.7694,0.69861 -0.3499,-0.0764 -1.3099,0.4091 -2.1334,1.07885 -2.9219,2.37635 -22.272,4.86805 -30.8306,3.97003 z M 1440.5334,67.699365 c -0.5867,-0.172018 -2.3988,-0.606927 -4.0269,-0.966467 -3.6102,-0.797224 -10.9763,-7.275978 -13.2319,-11.637769 -1.9849,-3.838214 -2.1632,-12.18625 -0.3363,-15.735281 1.9194,-3.728807 7.5191,-9.426079 11.1135,-11.307265 1.7151,-0.897638 5.3517,-1.632069 8.0816,-1.632069 5.8397,0 9.944,1.925799 14.5386,6.821813 4.6951,5.003055 5.9742,7.934304 5.9742,13.691007 0,5.756703 -1.2791,8.687952 -5.9742,13.691007 -4.6479,4.952793 -12.154,8.243377 -16.1386,7.075024 z"
      />
      <path style="fill:#ec3d52;"
         d="m 296.3012,1704.5997 c -11.17569,-4.3691 -21.19924,-14.5304 -25.61343,-25.9659 -2.94219,-7.6219 -2.94219,-20.5789 0,-28.2009 6.6699,-17.2791 22.33773,-28.2941 40.24557,-28.2941 17.90784,0 33.57567,11.015 40.24557,28.2941 2.94218,7.622 2.94218,20.579 0,28.2009 -4.47195,11.5851 -14.54055,21.7021 -25.88986,26.0146 -7.17701,2.727 -21.95113,2.7021 -28.98785,-0.049 z M 35.893854,439.43524 c -7.732762,-1.32858 -16.22842,-5.9495 -22.537332,-12.25842 -17.0692432,-17.06924 -17.0692432,-42.61772 0,-59.68696 17.069243,-17.06925 42.617715,-17.06925 59.686958,0 18.776317,18.77632 16.532171,48.33459 -4.862051,64.03939 -9.432327,6.92396 -21.213347,9.80869 -32.287575,7.90599 z M 1657.2272,325.31167 c -12.8325,-2.22901 -26.9511,-13.96458 -31.6486,-26.30683 -3.2837,-8.62753 -3.258,-20.90441 0.062,-29.6715 3.4109,-9.00722 14.9521,-20.54841 23.9593,-23.9594 8.839,-3.34725 21.0278,-3.34725 29.8667,0 9.0174,3.41483 20.5541,14.95641 23.9493,23.9594 6.7162,17.80895 1.1309,36.88582 -14.0842,48.10564 -9.4292,6.95314 -21.0263,9.79698 -32.1046,7.87269 z"
      />
      <path style="fill:#25d166;"
         d="m 826.66668,1484.1845 c -2.64,-0.2211 -12.24,-0.9142 -21.33333,-1.5403 -28.12991,-1.9369 -42.0402,-3.798 -75.2,-10.0615 -167.16973,-31.5762 -319.80561,-137.8606 -411.37202,-286.4493 -52.09341,-84.5342 -83.26886,-181.2701 -90.52719,-280.90145 -1.5205,-20.87119 -1.5625,-81.77635 -0.0678,-98.2986 4.85243,-53.63724 14.68838,-101.0403 30.87543,-148.8 62.59449,-184.68433 208.87323,-331.03697 393.22488,-393.42357 70.65597,-23.91075 147.64916,-35.04901 222.08748,-32.12841 32.3881,1.27076 51.90343,3.24223 82.97919,8.38271 61.89238,10.23809 128.25308,32.5438 184.08608,61.8765 l 10.2193,5.3689 9.5141,-2.52427 c 5.2326,-1.38834 20.0739,-5.26029 32.9806,-8.60433 12.9066,-3.34403 26.5866,-6.95905 30.4,-8.03339 6.5488,-1.845 27.6075,-7.36037 65.0666,-17.04122 9.0934,-2.35006 19.1734,-4.99167 22.4,-5.87025 3.2267,-0.87857 15.7067,-4.17783 27.7334,-7.33167 23.073,-6.05063 70.029,-18.39374 96,-25.23511 35.6073,-9.37982 45.9779,-11.94687 46.4314,-11.49328 0.2637,0.26362 -1.4745,7.64438 -3.8627,16.40168 -4.5374,16.63826 -6.3636,23.37511 -8.8707,32.72237 -0.8261,3.08 -6.132,22.4 -11.7907,42.93333 -5.6588,20.53333 -11.5285,41.89333 -13.0437,47.46667 -1.5152,5.57333 -3.6023,13.25333 -4.6381,17.06666 -1.0358,3.81334 -4.8588,17.73334 -8.4956,30.93334 -3.6368,13.2 -7.2519,26.4 -8.0334,29.33333 -0.7816,2.93334 -5.1013,18.77334 -9.5996,35.2 -4.4982,16.42667 -10.7166,39.19834 -13.8185,50.60372 l -5.64,20.73703 5.948,10.72963 c 25.0364,45.16295 47.7312,103.5055 59.3586,152.59629 1.5286,6.45334 3.2327,13.65334 3.787,16 3.2954,13.9514 8.6325,46.70885 10.6013,65.06667 4.1576,38.76732 4.2644,101.61443 0.2301,135.46667 -5.8122,48.77003 -14.0945,86.96995 -27.8589,128.49155 -31.8262,96.007 -83.7566,179.1804 -156.9816,251.4266 -103.3434,101.9625 -238.487,164.1578 -384.38965,176.9027 -16.77787,1.4656 -68.99279,2.8177 -78.4,2.0303 z m 65.06667,-106.5531 c 108.99175,-8.5865 207.66195,-48.7612 293.48975,-119.498 13.1188,-10.8122 43.0583,-39.6145 54.3302,-52.2667 91.7339,-102.9668 139.3038,-236.52351 132.3619,-371.61763 -3.8502,-74.92934 -20.7177,-140.58757 -53.0534,-206.51572 -8.8823,-18.10969 -23.8071,-44.28559 -34.2476,-60.06549 l -3.7485,-5.66548 3.9962,-14.60119 c 2.1979,-8.03064 4.836,-17.72118 5.8626,-21.53451 1.0266,-3.81334 5.4834,-20.13334 9.9041,-36.26667 4.4207,-16.13333 11.9028,-43.49333 16.6269,-60.8 4.7242,-17.30667 10.0342,-36.57446 11.8002,-42.8173 1.7661,-6.24286 3.211,-12.42286 3.211,-13.73334 0,-2.95637 4.1094,-3.78894 -42.1333,8.53605 -7.04,1.87635 -21.68,5.72096 -32.5334,8.54357 -20.5801,5.35226 -32.7419,8.53788 -61.3333,16.06548 -9.3867,2.47134 -26.7364,7.01321 -38.5551,10.09303 l -21.4885,5.59967 -8.7028,-5.24475 c -73.9825,-44.58595 -148.80318,-69.42199 -231.52028,-76.85102 -19.13647,-1.7187 -70.55077,-1.68939 -88.53334,0.0505 -67.92708,6.57213 -126.30143,22.93754 -185.06667,51.88396 -114.463,56.38191 -206.01014,154.9846 -253.53426,273.0742 -9.33977,23.20779 -20.79416,59.74649 -24.74454,78.93334 -9.43324,45.81693 -12.34417,72.2283 -12.34408,112 10e-5,48.13726 5.455,92.3532 16.64665,134.93334 2.08168,7.92 4.16069,15.84006 4.62001,17.60006 1.9533,7.4844 9.9299,30.0762 16.02142,45.3769 45.18976,113.508 132.95469,210.4236 242.28524,267.547 51.96312,27.1498 106.93013,44.8375 167.84957,54.0119 30.69401,4.6225 77.71719,5.9716 112.53333,3.2289 z"
      />
      <path style="fill:#25d166;"
         d="m 458.27309,936.26668 c -1.3784,-7.57278 -26.27308,-171.58036 -26.27308,-173.08859 0,-1.40657 3.52838,-1.57749 27.44302,-1.32941 l 27.44302,0.28467 6.50169,55.18916 c 3.57593,30.35403 6.75801,55.44548 7.07129,55.75874 0.61202,0.61203 3.72704,-11.12347 19.18606,-72.28123 l 9.90869,-39.20001 h 17.64623 17.64623 l 9.90869,39.20001 c 15.45902,61.15776 18.57404,72.89326 19.18606,72.28123 0.31328,-0.31326 3.49536,-25.40471 7.07129,-55.75874 l 6.50169,-55.18916 27.44302,-0.28467 c 23.91464,-0.24808 27.44302,-0.0772 27.44302,1.32941 0,1.50823 -24.89467,165.51581 -26.27307,173.08859 l -0.63101,3.46667 -32.68129,-0.005 -32.6813,-0.005 -11.2,-37.84899 c -6.16,-20.81694 -11.44,-37.84899 -11.73333,-37.84899 -0.29333,0 -5.57333,17.03205 -11.73333,37.84899 l -11.2,37.84899 -32.68129,0.005 -32.6813,0.005 z m 208.68057,2.12404 c 0.28337,-0.73846 10.77472,-40.8178 23.31412,-89.0652 l 22.7989,-87.72256 h 31.46667 31.46667 l 22.7989,87.72256 c 12.5394,48.2474 23.03075,88.32674 23.31412,89.0652 0.40445,1.05398 -4.52724,1.34263 -22.93929,1.34263 h -23.4545 l -4.5463,-18.4 c -2.50047,-10.12 -5.01606,-19 -5.59023,-19.73333 -0.76898,-0.98217 -6.31288,-1.33334 -21.04937,-1.33334 -14.73649,0 -20.2804,0.35117 -21.04938,1.33334 -0.57416,0.73333 -3.08976,9.61333 -5.59023,19.73333 l -4.54629,18.4 h -23.45451 c -18.41204,0 -23.34373,-0.28865 -22.93928,-1.34263 z m 92.27682,-70.3907 c -0.25545,-0.73334 -3.53672,-13.21334 -7.29172,-27.73334 -3.755,-14.52 -7.08744,-26.4 -7.40541,-26.4 -0.31798,0 -3.65041,11.88 -7.40541,26.4 -3.75501,14.52 -7.03628,27 -7.29172,27.73334 -0.35737,1.02591 3.03127,1.33333 14.69713,1.33333 11.66585,0 15.05449,-0.30742 14.69713,-1.33333 z m 77.54447,62.4 c 0.3217,-5.13334 1.54753,-41.73334 2.72406,-81.33334 1.17654,-39.6 2.41152,-75.48 2.74442,-79.73333 l 0.60527,-7.73334 32.70899,0.004 32.70899,0.004 15.36062,42.66273 c 8.44834,23.46384 15.69607,42.66207 16.10605,42.66207 0.40999,0 7.65771,-19.19823 16.10605,-42.66273 l 15.36062,-42.66273 32.70898,-0.004 32.709,-0.004 0.6053,7.73334 c 0.3329,4.25333 1.5679,40.13333 2.7444,79.73333 1.1765,39.6 2.4024,76.2 2.7241,81.33334 l 0.5849,9.33333 h -24.5514 -24.55131 l -0.48898,-2.4 c -0.26895,-1.32 -1.05947,-22.56 -1.75671,-47.2 -0.69724,-24.64 -1.56634,-47.90548 -1.93133,-51.70107 l -0.66362,-6.9004 -16.55445,53.8344 -16.55445,53.8344 h -16.4911 -16.49109 l -16.55446,-53.8344 -16.55445,-53.8344 -0.66362,6.90106 c -0.36499,3.79559 -1.23409,27.06107 -1.93132,51.70107 -0.69725,24.64 -1.48777,45.88 -1.75672,47.2 l -0.48898,2.4 h -24.55134 -24.55134 z m 226.13335,0 c 0.3217,-5.13334 1.5475,-41.73334 2.7241,-81.33334 1.1765,-39.6 2.4115,-75.48 2.7444,-79.73333 l 0.6052,-7.73334 32.709,0.004 32.709,0.004 15.3607,42.66273 c 8.4483,23.46384 15.696,42.66207 16.106,42.66207 0.41,0 7.6577,-19.19823 16.106,-42.66273 l 15.3607,-42.66273 32.709,-0.004 32.709,-0.004 0.6052,7.73334 c 0.3329,4.25333 1.5679,40.13333 2.7444,79.73333 1.1766,39.6 2.4024,76.2 2.7241,81.33334 l 0.585,9.33333 h -24.5514 -24.5514 l -0.4889,-2.4 c -0.269,-1.32 -1.0595,-22.56 -1.7567,-47.2 -0.6973,-24.64 -1.5664,-47.90548 -1.9314,-51.70107 l -0.6636,-6.90107 -16.5545,53.83441 -16.5544,53.8344 h -16.4911 -16.4911 l -16.5545,-53.8344 -16.5544,-53.83441 -0.6636,6.90107 c -0.365,3.79559 -1.2341,27.06107 -1.9314,51.70107 -0.6972,24.64 -1.4877,45.88 -1.7567,47.2 l -0.489,2.4 h -24.5513 -24.5513 l 0.5849,-9.33333 z"
      />
    </g>
</svg>
